<svg height="512pt" viewBox="0 0 512 512" width="512pt" xmlns="http://www.w3.org/2000/svg"><path d="m416 512h-320c-53.023438 0-96-42.976562-96-96v-320c0-53.023438 42.976562-96 96-96h320c53.023438 0 96 42.976562 96 96v320c0 53.023438-42.976562 96-96 96zm0 0" fill="#f5e6fe"/><path d="m309.34375 330.671875h-24c-5.886719 0-10.671875-4.769531-10.671875-10.671875 0-5.886719 4.785156-10.671875 10.671875-10.671875h24c29.410156 0 53.328125-23.921875 53.328125-53.328125s-23.917969-53.328125-53.328125-53.328125h-24c-5.886719 0-10.671875-4.769531-10.671875-10.671875 0-5.886719 4.785156-10.671875 10.671875-10.671875h24c41.167969 0 74.65625 33.503906 74.65625 74.671875s-33.488281 74.671875-74.65625 74.671875zm0 0" fill="#be63f9"/><path d="m226.65625 330.671875h-24c-41.152344 0-74.65625-33.503906-74.65625-74.671875s33.488281-74.671875 74.671875-74.671875h24c5.886719 0 10.671875 4.769531 10.671875 10.671875 0 5.886719-4.785156 10.671875-10.671875 10.671875h-24c-29.40625 0-53.328125 23.921875-53.328125 53.328125s23.921875 53.328125 53.328125 53.328125h24c5.886719 0 10.671875 4.769531 10.671875 10.671875-.015625 5.886719-4.785156 10.671875-10.6875 10.671875zm0 0" fill="#be63f9"/><path d="m288 266.671875h-64c-5.886719 0-10.671875-4.769531-10.671875-10.671875 0-5.886719 4.785156-10.671875 10.671875-10.671875h64c5.886719 0 10.671875 4.769531 10.671875 10.671875 0 5.886719-4.785156 10.671875-10.671875 10.671875zm0 0" fill="#d9a4fc"/></svg>